<svg width="20" height="18" viewBox="0 0 20 18" fill="none" xmlns="http://www.w3.org/2000/svg">
    <path d="M17.3666 2.8416C16.941 2.41577 16.4356 2.07797 15.8794 1.8475C15.3232 1.61704 14.727 1.49841 14.1249 1.49841C13.5229 1.49841 12.9267 1.61704 12.3705 1.8475C11.8143 2.07797 11.3089 2.41577 10.8833 2.8416L9.99994 3.72493L9.1166 2.8416C8.25686 1.98186 7.0908 1.49886 5.87494 1.49886C4.65908 1.49886 3.49301 1.98186 2.63327 2.8416C1.77353 3.70134 1.29053 4.86741 1.29053 6.08327C1.29053 7.29913 1.77353 8.46519 2.63327 9.32493L3.5166 10.2083L9.99994 16.6916L16.4833 10.2083L17.3666 9.32493C17.7924 8.8993 18.1302 8.39395 18.3607 7.83773C18.5912 7.28151 18.7098 6.68534 18.7098 6.08327C18.7098 5.48119 18.5912 4.88502 18.3607 4.3288C18.1302 3.77259 17.7924 3.26723 17.3666 2.8416V2.8416Z" stroke="white" strokeWidth="2" strokeLinecap="round" strokeLinejoin="round"/>
    </svg>