<svg width="20" height="19" viewBox="0 0 20 19" fill="none" xmlns="http://www.w3.org/2000/svg">
<path fillRule="evenodd" clipRule="evenodd" d="M10.0009 0C7.28508 0 6.94424 0.0112814 5.87756 0.0573964C4.81297 0.103709 4.08629 0.263826 3.45045 0.498755C2.79274 0.741403 2.23481 1.06599 1.67898 1.59423C1.12272 2.12228 0.78105 2.65231 0.524797 3.27694C0.276878 3.88118 0.108126 4.57172 0.0602089 5.58269C0.0125001 6.59603 0 6.92003 0 9.50009C0 12.0802 0.0120834 12.403 0.0604173 13.4163C0.109376 14.4277 0.27792 15.118 0.525005 15.7221C0.780633 16.3469 1.1223 16.8769 1.67835 17.405C2.23398 17.9334 2.7919 18.2588 3.4492 18.5014C4.08546 18.7364 4.81234 18.8965 5.87673 18.9428C6.94341 18.9889 7.28403 19.0002 9.99969 19.0002C12.7158 19.0002 13.0556 18.9889 14.1222 18.9428C15.1868 18.8965 15.9143 18.7364 16.5506 18.5014C17.2081 18.2588 17.7652 17.9334 18.3208 17.405C18.8771 16.8769 19.2187 16.3469 19.475 15.7223C19.7208 15.118 19.8896 14.4275 19.9396 13.4165C19.9875 12.4032 20 12.0802 20 9.50009C20 6.92003 19.9875 6.59623 19.9396 5.58289C19.8896 4.57152 19.7208 3.88118 19.475 3.27714C19.2187 2.65231 18.8771 2.12228 18.3208 1.59423C17.7646 1.06579 17.2083 0.741205 16.55 0.498755C15.9125 0.263826 15.1854 0.103709 14.1208 0.0573964C13.0541 0.0112814 12.7145 0 9.99781 0H10.0009ZM9.10375 1.71198C9.27794 1.71172 9.46533 1.7118 9.66755 1.71189L10.0008 1.71198C12.6709 1.71198 12.9873 1.72109 14.0417 1.76661C15.0167 1.80896 15.5459 1.96373 15.8984 2.09377C16.3651 2.26596 16.6978 2.47179 17.0476 2.8043C17.3976 3.1368 17.6143 3.45347 17.7959 3.89681C17.9328 4.23129 18.0959 4.734 18.1403 5.66026C18.1882 6.66173 18.1986 6.96256 18.1986 9.4979C18.1986 12.0332 18.1882 12.3341 18.1403 13.3355C18.0957 14.2618 17.9328 14.7645 17.7959 15.099C17.6147 15.5423 17.3976 15.858 17.0476 16.1903C16.6976 16.5228 16.3653 16.7287 15.8984 16.9008C15.5463 17.0315 15.0167 17.1859 14.0417 17.2282C12.9875 17.2737 12.6709 17.2836 10.0008 17.2836C7.33061 17.2836 7.01415 17.2737 5.95997 17.2282C4.98496 17.1855 4.45579 17.0307 4.10307 16.9007C3.6364 16.7285 3.30307 16.5226 2.95306 16.1901C2.60306 15.8576 2.38639 15.5417 2.20472 15.0982C2.06785 14.7637 1.90472 14.261 1.86034 13.3348C1.81243 12.3333 1.80284 12.0324 1.80284 9.49553C1.80284 6.95861 1.81243 6.65935 1.86034 5.65789C1.90493 4.73163 2.06785 4.22891 2.20472 3.89403C2.38597 3.4507 2.60306 3.13403 2.95306 2.80152C3.30307 2.46902 3.6364 2.26319 4.10307 2.0906C4.45558 1.95997 4.98496 1.8056 5.95997 1.76305C6.88248 1.72346 7.23998 1.71159 9.10375 1.70961V1.71198ZM14.139 4.42908C14.139 3.79951 14.6765 3.28947 15.339 3.28947V3.28907C16.0015 3.28907 16.539 3.7997 16.539 4.42908C16.539 5.05847 16.0015 5.5691 15.339 5.5691C14.6765 5.5691 14.139 5.05847 14.139 4.42908ZM10.0007 4.62134C7.16473 4.62144 4.86545 6.80583 4.86545 9.50003C4.86545 12.1943 7.16485 14.3777 10.0009 14.3777C12.837 14.3777 15.1356 12.1943 15.1356 9.50003C15.1356 6.80577 12.8368 4.62134 10.0007 4.62134ZM13.3342 9.50009C13.3342 7.75109 11.8417 6.33339 10.0008 6.33339C8.15979 6.33339 6.66748 7.75109 6.66748 9.50009C6.66748 11.2489 8.15979 12.6668 10.0008 12.6668C11.8417 12.6668 13.3342 11.2489 13.3342 9.50009Z" fill="white"/>
</svg>
