<svg width="31" height="30" viewBox="0 0 31 30" fill="none" xmlns="http://www.w3.org/2000/svg">
<path d="M15.3168 25.0025L8.03419 29.3896C7.71247 29.5943 7.37612 29.6821 7.02515 29.6528C6.67418 29.6236 6.36708 29.5066 6.10385 29.3019C5.84062 29.0971 5.63589 28.8415 5.48965 28.535C5.34341 28.2273 5.31417 27.8834 5.40191 27.5031L7.33225 19.2114L0.883153 13.6398C0.590677 13.3765 0.408172 13.0765 0.335638 12.7395C0.261934 12.4038 0.283577 12.075 0.400568 11.7533C0.517558 11.4316 0.693044 11.1684 0.927024 10.9636C1.16101 10.7589 1.48273 10.6273 1.8922 10.5688L10.4032 9.82296L13.6936 2.01385C13.8398 1.66288 14.0668 1.39965 14.3745 1.22417C14.681 1.04868 14.9951 0.960938 15.3168 0.960938C15.6386 0.960938 15.9533 1.04868 16.261 1.22417C16.5675 1.39965 16.7939 1.66288 16.9401 2.01385L20.2304 9.82296L28.7415 10.5688C29.151 10.6273 29.4727 10.7589 29.7067 10.9636C29.9407 11.1684 30.1161 11.4316 30.2331 11.7533C30.3501 12.075 30.3723 12.4038 30.2998 12.7395C30.2261 13.0765 30.043 13.3765 29.7505 13.6398L23.3014 19.2114L25.2318 27.5031C25.3195 27.8834 25.2903 28.2273 25.144 28.535C24.9978 28.8415 24.7931 29.0971 24.5298 29.3019C24.2666 29.5066 23.9595 29.6236 23.6085 29.6528C23.2576 29.6821 22.9212 29.5943 22.5995 29.3896L15.3168 25.0025Z" fill="url(#paint0_linear_105_512)"/>
<defs>
<linearGradient id="paint0_linear_105_512" x1="22.3183" y1="-5.70995" x2="-6.76744" y2="4.93818" gradientUnits="userSpaceOnUse">
<stop stop-color="#E0A872"/>
<stop offset="0.444501" stop-color="#F8E4BE"/>
<stop offset="0.549712" stop-color="#FFF3E0"/>
<stop offset="1" stop-color="#E0A872"/>
</linearGradient>
</defs>
</svg>
